<svg width="568" height="189" viewBox="0 0 568 189" fill="none" xmlns="http://www.w3.org/2000/svg">
<path d="M482.69 186.04V151.86H486.39V183.13H503.27V186.04H482.69Z" fill="white"/>
<path d="M516.2 186.04V154.77H504.39V151.86H531.78V154.77H519.92V186.04H516.2Z" fill="white"/>
<path d="M537.34 186.04V151.86H546.44C553.14 151.86 558.24 153.31 561.75 156.19C565.26 159.07 567.02 163.4 567.02 169.16C567.02 174.62 565.36 178.8 562.02 181.7C558.68 184.6 553.85 186.04 547.5 186.04H537.34ZM541.04 183.13H547.65C552.74 183.13 556.59 181.93 559.21 179.54C561.83 177.14 563.14 173.69 563.14 169.16C563.14 159.57 557.64 154.77 546.66 154.77H541.04V183.13Z" fill="white"/>
<path d="M0.910004 55.25C0.910004 55.29 0.910004 55.32 0.910004 55.36C0.910004 57.16 1.01999 58.82 1.17999 60.41C2.55999 60.2 3.94 59.99 5.33 59.77C3.84 58.27 2.36 56.77 0.910004 55.25Z" fill="white"/>
<path d="M37.06 87.39C38.01 87.42 38.94 87.46 39.95 87.46C46.98 87.46 52.77 86.51 57.33 84.6C61.89 82.7 65.63 80.02 68.57 76.58C71.5 73.14 73.61 69.07 74.9 64.36L51.58 61.79C50.49 65.1 48.86 67.54 46.67 69.14C44.48 70.73 41.78 71.53 38.57 71.53C34.71 71.53 31.54 70.21 29.05 67.57C26.99 65.39 25.84 62.33 25.48 58.49C20.24 59.48 15.02 60.41 9.84 61.26C18.73 70.22 27.9 78.88 37.06 87.39Z" fill="white"/>
<path d="M7.97 59.37C13.72 58.45 19.51 57.42 25.32 56.31C25.32 56.2 25.3 56.11 25.3 56C25.3 50.29 26.55 46.04 29.06 43.22C31.57 40.41 34.85 39 38.91 39C42.12 39 44.68 39.67 46.59 41.01C48.5 42.35 49.82 44.34 50.54 46.98L73.62 44.01C71.41 37.05 67.56 31.76 62.08 28.15C56.6 24.53 48.63 22.73 38.19 22.73C30.72 22.73 24.59 23.68 19.81 25.58C16.8 26.78 13.86 28.62 11.01 31.09C8.15999 33.55 5.90999 36.35 4.25999 39.45C2.38999 42.97 1.35 47.26 1.03 52.24C3.32 54.65 5.64 57.01 7.97 59.37Z" fill="white"/>
<path d="M3.67 70.04C5.52 73.73 8.07001 76.94 11.32 79.68C14.57 82.42 18.46 84.4 22.98 85.62C26.02 86.44 29.63 86.97 33.7 87.24C24.77 78.92 15.85 70.44 7.17999 61.69C5.25999 62 3.36 62.28 1.45 62.57C1.91 65.43 2.62 67.95 3.67 70.04Z" fill="white"/>
<path d="M123.42 56.67V60.46C123.42 63.41 122.93 65.82 121.94 67.66C120.95 69.51 119.29 71.07 116.94 72.35C114.59 73.63 112.05 74.27 109.32 74.27C106.71 74.27 104.73 73.68 103.39 72.49C102.14 71.39 101.5 69.98 101.41 68.3C94.49 72.33 87.58 76.3 80.66 80.16C81.29 80.9 81.94 81.64 82.73 82.32C86.69 85.74 92.48 87.45 100.11 87.45C105.85 87.45 110.89 86.59 115.23 84.88C118.4 83.6 121.6 81.46 124.81 78.47C125.09 80.26 125.37 81.57 125.65 82.41C125.93 83.25 126.53 84.46 127.46 86.05H150.48C149.19 83.48 148.36 81.38 147.98 79.72C147.74 78.69 147.61 77.33 147.52 75.81C141.37 67.87 135.14 59.95 128.79 52.1C125.54 54.06 122.28 56.02 119.04 57.94C120.47 57.52 122.01 57.16 123.42 56.67Z" fill="white"/>
<path d="M147.4 72.13V45.54C147.4 44.05 147.23 42.52 146.92 40.95C141.51 44.36 136.09 47.71 130.67 50.99C136.33 57.99 141.9 65.05 147.4 72.13Z" fill="white"/>
<path d="M119.53 37.5C120.34 37.78 121.04 38.13 121.54 38.6C122.3 39.32 122.81 40.4 123.1 41.78C125.17 44.27 127.22 46.78 129.26 49.29C134.94 45.85 140.61 42.34 146.28 38.77C146.05 37.97 145.89 37.18 145.59 36.36C144.38 33.16 142.74 30.67 140.65 28.93C137.68 26.4 133.96 24.74 129.5 23.94C128.07 23.69 126.44 23.49 124.72 23.31C120.96 25.62 117.07 27.83 113.06 29.96C115.23 32.46 117.4 34.96 119.53 37.5Z" fill="white"/>
<path d="M96.84 51.31C89.17 52.79 83.91 55.04 81.05 58.07C78.2 61.1 76.77 64.97 76.77 69.67C76.77 72.92 77.69 75.8 79.35 78.38C86.88 74.19 94.41 69.86 101.95 65.46C102.29 64.79 102.76 64.15 103.4 63.55C104.5 62.52 106.94 61.47 110.56 60.41C116.14 57.13 121.74 53.8 127.36 50.41C125.86 48.57 124.36 46.74 122.85 44.91C120 45.98 117.29 46.87 114.72 47.54C112.01 48.27 106.04 49.52 96.84 51.31Z" fill="white"/>
<path d="M111.61 28.26C114.81 26.57 117.93 24.81 120.97 23C118.2 22.83 115.16 22.74 111.78 22.74C110.1 22.74 108.5 22.83 106.9 22.92C108.49 24.69 110.06 26.47 111.61 28.26Z" fill="white"/>
<path d="M99.01 23.73C95.07 24.39 91.98 25.32 89.73 26.53C86.6 28.2 84.2 30.17 82.53 32.45C80.86 34.72 79.59 37.84 78.7 41.81L80.2 41.96C90.58 38.26 100.41 34.03 109.61 29.29C107.8 27.21 105.96 25.16 104.12 23.11C102.38 23.27 100.65 23.45 99.01 23.73Z" fill="white"/>
<path d="M102.14 44.19C103.1 41.51 104.37 39.68 105.94 38.71C107.95 37.47 110.96 36.84 114.98 36.84C115.41 36.84 115.77 36.88 116.16 36.9C114.48 34.92 112.79 32.95 111.09 30.98C102.93 35.2 94.3 39.04 85.22 42.46L102.14 44.19Z" fill="white"/>
<path d="M179.71 19.01C180.19 19.25 180.67 19.49 181.15 19.74V17.99C180.68 18.33 180.19 18.67 179.71 19.01Z" fill="white"/>
<path d="M156.57 84C157.1 84.69 157.62 85.38 158.15 86.06H181.15V22.17C179.99 21.59 178.84 21.01 177.7 20.43C170.74 25.34 163.69 30.12 156.57 34.75V84Z" fill="white"/>
<path d="M156.57 32.17C162.95 28.01 169.25 23.72 175.5 19.33C169.01 15.99 162.69 12.56 156.57 9.03003V32.17Z" fill="white"/>
<path d="M156.57 6.50002C163.32 10.41 170.3 14.21 177.51 17.9C178.73 17.04 179.94 16.18 181.15 15.31V0.580017H156.57V6.50002Z" fill="white"/>
<path d="M221.85 40.46C221.97 40.46 222.07 40.49 222.19 40.49C213.3 36.93 204.7 33.25 196.38 29.44C195.87 29.91 195.37 30.38 194.88 30.89C189.8 36.33 187.26 44.18 187.26 54.45C187.26 63.62 189.56 71.42 194.16 77.83C198.76 84.24 205.42 87.45 214.14 87.45C218.48 87.45 222.41 86.55 225.95 84.77C228.6 83.41 231.53 80.79 234.75 76.9V86.05H245.67C249.63 83.8 253.64 81.53 257.71 79.21V53.52C247.79 50.18 238.23 46.71 228.95 43.12C229.28 43.42 229.63 43.68 229.93 44.03C232.06 46.42 233.12 50.05 233.12 54.9C233.12 60.27 232.07 64.13 229.98 66.5C227.89 68.87 225.28 70.06 222.15 70.06C219.22 70.06 216.76 68.89 214.77 66.53C212.78 64.18 211.79 60.48 211.79 55.42C211.79 50.02 212.75 46.17 214.68 43.87C216.6 41.61 218.99 40.46 221.85 40.46Z" fill="white"/>
<path d="M257.7 86.06V81.73C255.14 83.19 252.61 84.63 250.09 86.06H257.7Z" fill="white"/>
<path d="M257.7 51.24V45.88C254.48 42.16 251.17 38.5 247.99 34.76C243.01 28.88 237.92 22.74 232.93 16.39V30.2C230.52 27.71 227.76 25.85 224.65 24.6C221.53 23.36 218.07 22.73 214.26 22.73C208.05 22.73 202.72 24.47 198.24 27.89C216.63 36.28 236.39 44.05 257.7 51.24Z" fill="white"/>
<path d="M249.66 33.36C252.29 36.46 255.03 39.49 257.7 42.57V0.590027H232.93V12.84C238.45 19.96 244.12 26.82 249.66 33.36Z" fill="white"/>
<path d="M298.21 87.39C298.85 87.4 299.42 87.46 300.08 87.46C309.84 87.46 317.33 86.11 322.55 83.41C326.27 81.48 329.59 78.62 332.54 74.91C325.2 73.16 317.82 71.28 310.43 69.31C309.41 70.37 308.42 71.26 307.49 71.78C305.32 72.95 303.03 73.53 300.62 73.53C296.8 73.53 293.71 72.19 291.34 69.51C290.13 68.17 289.26 66.32 288.69 63.98C288.61 64.03 288.53 64.08 288.44 64.12C285.83 65.63 283.32 67.06 280.75 68.54C286.53 74.86 292.3 81.18 298.21 87.39Z" fill="white"/>
<path d="M337.31 60.99V58.31C337.31 50.15 335.92 43.52 333.15 38.42C333.04 38.21 332.89 38.04 332.77 37.84C320.26 45.58 307.27 53.21 293.83 60.99H337.31Z" fill="white"/>
<path d="M263.32 52.33C263.3 52.58 263.3 52.83 263.29 53.08C263.61 53.19 263.93 53.29 264.26 53.4C263.95 53.04 263.64 52.68 263.32 52.33Z" fill="white"/>
<path d="M280.07 83.99C283.93 85.83 288.98 86.9 295.13 87.28C289.62 81.46 284.21 75.56 278.81 69.65C275.68 71.45 272.53 73.26 269.47 75.01C272.41 78.98 275.92 82.02 280.07 83.99Z" fill="white"/>
<path d="M267.99 72.97C268.05 73.07 268.12 73.14 268.18 73.24C271.17 71.53 274.24 69.77 277.29 68.01C273.85 64.23 270.45 60.43 267.06 56.61C265.76 56.19 264.49 55.77 263.21 55.34C263.23 62.09 264.82 67.97 267.99 72.97Z" fill="white"/>
<path d="M268.32 54.73C274.98 56.87 281.8 58.95 288.75 60.98H289.5C296.12 57.16 302.6 53.38 308.99 49.61H288.22C288.62 45.92 289.57 43.14 291.05 41.27C293.38 38.28 296.49 36.78 300.39 36.78C303.76 36.78 306.48 37.77 308.55 39.75C310.32 41.45 311.48 44.16 312.08 47.78C318.7 43.86 325.23 39.94 331.6 35.99C328.94 32.09 325.46 28.98 321.05 26.74C315.75 24.06 308.52 22.72 299.36 22.72C288.07 22.72 279.22 25.71 272.82 31.7C267.76 36.43 264.73 42.33 263.67 49.37C265.21 51.17 266.75 52.96 268.32 54.73Z" fill="white"/>
<path d="M314.37 68.1C320.91 69.81 327.43 71.44 333.93 72.99C334.61 72.03 335.29 71.09 335.92 70.03L314.37 68.1Z" fill="white"/>
<path d="M279.23 66.9C281.7 65.48 284.12 64.09 286.64 62.64C281.37 61.09 276.17 59.51 271.07 57.89C273.77 60.91 276.5 63.9 279.23 66.9Z" fill="white"/>
<path d="M346.82 75.92C353.36 77.37 359.88 78.73 366.36 80.01C368.07 78.83 369.75 77.61 371.46 76.41V65.3C371.46 55.38 372.73 48.62 375.26 45.01C377.03 42.44 379.52 41.16 382.73 41.16C384.42 41.16 386.71 41.74 389.6 42.91L397.2 26C392.9 23.82 388.95 22.73 385.33 22.73C381.87 22.73 378.97 23.55 376.62 25.21C374.27 26.86 371.99 29.89 369.78 34.28V24.13H354.09C351.67 25.74 349.28 27.36 346.83 28.94V75.92H346.82Z" fill="white"/>
<path d="M346.82 86.06H357.4C359.55 84.62 361.71 83.19 363.85 81.72C358.19 80.59 352.52 79.41 346.82 78.15V86.06Z" fill="white"/>
<path d="M371.47 83.25C369.94 82.96 368.39 82.63 366.86 82.33C365.02 83.59 363.16 84.81 361.31 86.06H371.47V83.25Z" fill="white"/>
<path d="M371.47 81.04V79.08C370.75 79.59 370.03 80.11 369.31 80.61C370.02 80.75 370.75 80.9 371.47 81.04Z" fill="white"/>
<path d="M350.14 24.14H346.82V26.34C347.94 25.61 349.03 24.87 350.14 24.14Z" fill="white"/>
<path d="M34.49 101.81V125.37H47.99V142.75H34.49V164.69C34.49 167.33 34.75 169.07 35.27 169.93C36.07 171.25 37.48 171.91 39.49 171.91C41.3 171.91 43.83 171.41 47.08 170.4L48.89 186.78C42.83 188.06 37.16 188.7 31.9 188.7C25.79 188.7 21.3 187.94 18.4 186.43C15.51 184.92 13.37 182.61 11.98 179.53C10.59 176.44 9.89999 171.44 9.89999 164.54V142.76H0.860001V125.38H9.89999V114L34.49 101.81Z" fill="white"/>
<path d="M111.25 158.43C107.07 154.92 102.98 151.31 98.9 147.69C99.12 148.66 99.29 149.72 99.4 150.85H75.24C75.64 147.16 76.59 144.38 78.07 142.51C80.4 139.52 83.51 138.02 87.41 138.02C87.72 138.02 88 138.07 88.3 138.09C83.66 133.82 79.06 129.56 74.52 125.29C68.7 126.7 63.81 129.25 59.85 132.95C53.44 138.94 50.24 146.77 50.24 156.45C50.24 163.25 51.84 169.17 55.03 174.2C56.54 176.59 58.26 178.64 60.14 180.42C66.92 177.9 73.64 175.26 80.26 172.47C79.59 171.97 78.96 171.4 78.37 170.73C76.68 168.86 75.62 166.03 75.18 162.21H103.24C105.92 160.97 108.6 159.71 111.25 158.43Z" fill="white"/>
<path d="M124.35 162.22V159.54C124.35 157.79 124.25 156.15 124.13 154.55C121.21 156.01 118.24 157.45 115.29 158.89C116.65 160.02 118.05 161.11 119.42 162.23H124.35V162.22Z" fill="white"/>
<path d="M123.87 152.24C123.27 147.36 122.08 143.12 120.19 139.66C117.42 134.57 113.38 130.68 108.08 128C102.78 125.32 95.55 123.97 86.39 123.97C83.09 123.97 80.03 124.26 77.15 124.77C82.24 129.55 87.38 134.31 92.59 139.06C93.69 139.54 94.7 140.16 95.58 141C96.25 141.64 96.8 142.46 97.3 143.37C102.59 148.13 107.96 152.81 113.41 157.38C116.92 155.67 120.41 153.97 123.87 152.24Z" fill="white"/>
<path d="M113.12 159.94C111.55 160.7 110 161.47 108.42 162.22H115.95C115.01 161.45 114.05 160.72 113.12 159.94Z" fill="white"/>
<path d="M109.59 184.64C114.81 181.94 119.27 177.48 122.97 171.26L98.81 169.1C97.28 170.97 95.86 172.27 94.53 173.01C92.36 174.18 90.07 174.76 87.66 174.76C85.82 174.76 84.16 174.43 82.66 173.81C75.89 176.68 69.03 179.43 62.09 182.03C63.66 183.26 65.31 184.37 67.11 185.23C71.97 187.54 78.64 188.7 87.11 188.7C96.87 188.7 104.37 187.34 109.59 184.64Z" fill="white"/>
<path d="M147.26 185.38C141.43 181.61 135.55 177.44 129.61 172.99L119.36 187.29H145.93L147.26 185.38Z" fill="white"/>
<path d="M176.88 154.88L192.4 133.91C190.14 131.07 187.88 128.23 185.65 125.38H179.43C175.28 127.64 171.17 129.86 167.07 132.07L159.82 142.64L156.83 137.56C150.41 140.99 143.93 144.43 137.34 147.84L142.6 154.89L130.88 171.24C136.81 175.68 142.69 179.84 148.51 183.61L159.82 167.37L171.66 187.31H200.28L176.88 154.88Z" fill="white"/>
<path d="M149.66 125.37H120.56L136.01 146.06C142.67 142.61 149.23 139.14 155.72 135.67L149.66 125.37Z" fill="white"/>
<path d="M193.74 132.09L198.71 125.37H188.43C190.19 127.62 191.96 129.85 193.74 132.09Z" fill="white"/>
<path d="M171.65 125.37L169.76 128.12C171.45 127.2 173.15 126.29 174.85 125.37H171.65Z" fill="white"/>
<path d="M211.35 157.05V164.53C211.35 171.44 212.04 176.44 213.43 179.52C213.62 179.95 213.87 180.33 214.09 180.73C217.96 178.31 221.81 175.86 225.62 173.37C220.78 168.01 216.02 162.56 211.35 157.05Z" fill="white"/>
<path d="M235.93 164.69V142.75H249.43V125.37H235.93V101.81L211.35 114V125.37H202.31V142.74H211.35V153.68C216.61 159.94 221.98 166.1 227.46 172.16C230.32 170.28 233.16 168.4 235.99 166.5C235.95 165.95 235.93 165.34 235.93 164.69Z" fill="white"/>
<path d="M219.85 186.42C222.74 187.94 227.24 188.69 233.35 188.69C235.36 188.69 237.48 188.51 239.61 188.32C235.36 183.96 231.19 179.52 227.09 175.01C223.18 177.56 219.25 180.07 215.28 182.55C216.51 184.15 218.01 185.46 219.85 186.42Z" fill="white"/>
<path d="M248.53 170.39C245.28 171.4 242.75 171.9 240.94 171.9C238.93 171.9 237.52 171.24 236.72 169.92C236.56 169.66 236.44 169.3 236.33 168.89C233.87 170.54 231.41 172.17 228.93 173.8C233.34 178.64 237.81 183.41 242.38 188.08C243.97 187.88 245.63 187.57 247.28 187.28C248.28 186.93 249.27 186.56 250.27 186.22L248.53 170.39Z" fill="white"/>
<path d="M280.18 101.81H255.66V117.96H280.18V101.81Z" fill="white"/>
<path d="M280.18 178.96C271.96 181.39 263.78 183.99 255.66 186.72V187.3H280.18V178.96Z" fill="white"/>
<path d="M280.18 136.28V125.37H255.66V153.06C256.75 152.31 257.85 151.55 258.93 150.8C265.88 146.01 273.03 141.11 280.18 136.28Z" fill="white"/>
<path d="M280.18 138.91C273.45 143.46 266.72 148.08 260.18 152.6C258.68 153.63 257.17 154.68 255.66 155.71V184.42C263.79 181.7 271.97 179.11 280.18 176.69V138.91Z" fill="white"/>
<path d="M314.78 104.35V101.81H312.29C313.12 102.66 313.95 103.51 314.78 104.35Z" fill="white"/>
<path d="M314.78 169.28C306.6 171.48 298.4 173.74 290.2 176.08V187.3H314.78V169.28Z" fill="white"/>
<path d="M314.78 116.28C306.59 121.51 298.35 126.83 290.2 132.21V173.81C298.41 171.48 306.61 169.22 314.78 167.02V116.28Z" fill="white"/>
<path d="M314.78 107.47C312.92 105.59 311.08 103.7 309.23 101.81H290.2V129.61C298.37 124.23 306.6 118.91 314.78 113.69V107.47Z" fill="white"/>
<path d="M376 162.22H395V159.54C395 154.74 394.46 150.54 393.5 146.8C384.88 149.65 376.19 152.3 367.48 154.84C370.29 157.32 373.13 159.79 376 162.22Z" fill="white"/>
<path d="M391.32 174.67C392.11 173.58 392.89 172.48 393.61 171.26L386.15 170.59C387.87 171.96 389.58 173.33 391.32 174.67Z" fill="white"/>
<path d="M390.84 139.66C388.07 134.57 384.03 130.68 378.73 128C373.43 125.32 366.2 123.97 357.04 123.97C349.82 123.97 343.61 125.21 338.39 127.66C342.7 131.81 346.96 136.02 351.32 140.1C353.23 138.76 355.45 138.03 358.06 138.03C361.43 138.03 364.15 139.02 366.22 141C368.29 142.98 369.56 146.27 370.04 150.85H363.01C363.85 151.61 364.7 152.37 365.54 153.13C374.7 150.48 383.85 147.7 392.91 144.7C392.33 142.89 391.67 141.18 390.84 139.66Z" fill="white"/>
<path d="M382.23 170.25L369.44 169.11C367.91 170.98 366.49 172.28 365.16 173.02C362.99 174.19 360.7 174.77 358.29 174.77C354.47 174.77 351.38 173.43 349.01 170.75C347.32 168.88 346.26 166.05 345.82 162.23H372.63C370.06 160.03 367.52 157.81 365 155.57C352 159.32 338.95 162.81 326.02 166.27C324.85 166.58 323.67 166.9 322.5 167.22C323.28 169.71 324.3 172.06 325.67 174.22C328.86 179.26 332.89 182.93 337.75 185.24C342.61 187.55 349.28 188.71 357.75 188.71C367.51 188.71 375 187.36 380.22 184.66C383.85 182.78 387.09 180 389.98 176.42C387.38 174.39 384.8 172.33 382.23 170.25Z" fill="white"/>
<path d="M363.07 153.85C361.96 152.86 360.87 151.85 359.77 150.86H345.89C346.29 147.17 347.24 144.39 348.72 142.52C349.01 142.15 349.35 141.87 349.66 141.54C345.17 137.34 340.77 133 336.34 128.73C334.21 129.92 332.25 131.32 330.49 132.96C324.08 138.95 320.88 146.78 320.88 156.46C320.88 159.54 321.25 162.4 321.91 165.12C323.09 164.8 324.28 164.48 325.46 164.17C337.94 160.82 350.53 157.45 363.07 153.85Z" fill="white"/>
<path d="M433.73 123.97C426.5 123.97 420.74 124.7 416.44 126.15C412.14 127.61 408.77 129.81 406.32 132.76C404.28 135.21 403.14 138.08 402.8 141.31C416.82 136.38 430.57 130.83 443.9 124.41C441.02 124.13 437.65 123.97 433.73 123.97Z" fill="white"/>
<path d="M455.66 150.66C451.68 149.07 445.62 147.83 437.46 146.93C432.08 146.31 428.58 145.61 426.98 144.83C425.37 144.05 424.57 142.91 424.57 141.39C424.57 140.03 425.2 138.88 426.47 137.93C427.74 136.98 429.75 136.5 432.53 136.5C435.26 136.5 437.59 137.12 439.52 138.37C440.93 139.3 441.93 140.76 442.53 142.74L465.79 140.52C464.18 136.48 462.16 133.27 459.73 130.9C457.3 128.53 454.27 126.78 450.63 125.65C449.79 125.39 448.81 125.16 447.76 124.96C433.18 132.16 418.07 138.27 402.67 143.66C402.74 147.23 403.85 150.44 406.05 153.26C408.32 156.17 411.11 158.24 414.43 159.46C417.74 160.68 423.66 162.01 432.18 163.45C437.88 164.42 441.4 165.24 442.73 165.9C444.58 166.83 445.5 168.15 445.5 169.86C445.5 171.38 444.8 172.64 443.39 173.65C441.58 175.01 439.03 175.69 435.74 175.69C432.73 175.69 430.32 175.09 428.51 173.88C426.7 172.67 425.29 170.67 424.29 167.87L399.95 170.09C401.36 176.04 404.54 180.63 409.5 183.85C414.46 187.08 422.79 188.69 434.47 188.69C442.75 188.69 449.28 187.69 454.08 185.69C458.88 183.69 462.4 181 464.63 177.62C466.86 174.24 467.98 170.77 467.98 167.19C467.98 163.65 466.92 160.41 464.81 157.46C462.68 154.52 459.64 152.25 455.66 150.66Z" fill="white"/>
</svg>
