<svg width="128" height="128" viewBox="0 0 128 128" fill="#FFFFFF" xmlns="http://www.w3.org/2000/svg">
<!-- <rect width="128" height="128" fill="#F5F5F5"/> -->
<!-- <rect width="128" height="128" fill="white"/> -->
<path d="M2.00999 63.82C2.00999 63.89 2 63.94 2 64.01C2 67.04 2.18 69.85 2.45 72.53C4.77 72.17 7.09 71.83 9.42 71.46C6.95 68.91 4.45999 66.38 2.00999 63.82Z" fill="currentColor"/>
<path d="M62.74 118C64.34 118.05 65.9 118.11 67.59 118.11C79.39 118.11 89.13 116.5 96.78 113.29C104.43 110.08 110.73 105.57 115.65 99.78C120.57 93.98 124.12 87.12 126.27 79.18L87.11 74.85C85.29 80.42 82.54 84.55 78.86 87.24C75.18 89.92 70.65 91.27 65.25 91.27C58.77 91.27 53.44 89.05 49.26 84.6C45.81 80.93 43.86 75.77 43.26 69.29C34.46 70.96 25.69 72.53 16.99 73.95C31.95 89.05 47.36 103.66 62.74 118Z" fill="currentColor"/>
<path d="M13.88 70.76C23.53 69.2 33.26 67.47 43.03 65.61C43.03 65.43 43 65.27 43 65.08C43 55.46 45.11 48.28 49.32 43.54C53.54 38.8 59.05 36.43 65.87 36.43C71.27 36.43 75.57 37.56 78.77 39.82C81.97 42.08 84.19 45.44 85.4 49.89L124.16 44.88C120.45 33.15 113.99 24.24 104.78 18.14C95.57 12.04 82.2 9 64.65 9C52.1 9 41.82 10.61 33.79 13.81C28.73 15.84 23.8 18.94 19.01 23.09C14.22 27.25 10.44 31.95 7.67999 37.18C4.54999 43.11 2.79 50.34 2.25 58.75C6.08 62.81 9.97 66.79 13.88 70.76Z" fill="currentColor"/>
<path d="M6.66 88.76C9.76 94.97 14.05 100.39 19.51 105.01C24.97 109.63 31.5 112.97 39.09 115.03C44.2 116.42 50.26 117.3 57.1 117.76C42.1 103.74 27.12 89.45 12.55 74.69C9.32 75.21 6.12999 75.68 2.92999 76.17C3.69999 80.98 4.9 85.23 6.66 88.76Z" fill="currentColor"/>
</svg>
