<svg width="570" height="190" viewBox="0 0 570 190" fill="none" xmlns="http://www.w3.org/2000/svg">
<path d="M484.53 187.28V152.83H488.25V184.35H505.2V187.28H484.53Z" fill="#2C3446"/>
<path d="M518.18 187.28V155.77H506.32V152.83H533.83V155.77H521.92V187.28H518.18Z" fill="#2C3446"/>
<path d="M539.4 187.28V152.83H548.54C555.26 152.83 560.39 154.29 563.92 157.2C567.45 160.11 569.21 164.47 569.21 170.27C569.21 175.77 567.54 179.99 564.19 182.91C560.84 185.83 555.98 187.29 549.61 187.29H539.4V187.28ZM543.12 184.35H549.76C554.87 184.35 558.74 183.14 561.37 180.73C564 178.32 565.32 174.83 565.32 170.27C565.32 160.6 559.8 155.77 548.77 155.77H543.13V184.35H543.12Z" fill="#2C3446"/>
<path d="M0.759995 55.47C0.759995 55.51 0.759995 55.54 0.759995 55.58C0.759995 57.39 0.869999 59.07 1.03 60.67C2.42 60.46 3.8 60.25 5.2 60.03C3.71 58.51 2.22999 57 0.759995 55.47Z" fill="#2C3446"/>
<path d="M37.07 87.86C38.03 87.89 38.96 87.93 39.97 87.93C47.03 87.93 52.85 86.97 57.42 85.05C62 83.13 65.76 80.44 68.7 76.97C71.64 73.5 73.76 69.4 75.05 64.66L51.64 62.07C50.55 65.4 48.91 67.87 46.71 69.48C44.51 71.08 41.8 71.89 38.57 71.89C34.7 71.89 31.51 70.56 29.01 67.9C26.95 65.71 25.78 62.62 25.42 58.75C20.16 59.75 14.92 60.69 9.71001 61.54C18.66 70.55 27.87 79.29 37.07 87.86Z" fill="#2C3446"/>
<path d="M7.86 59.62C13.63 58.69 19.45 57.65 25.28 56.54C25.28 56.43 25.26 56.34 25.26 56.23C25.26 50.48 26.52 46.19 29.04 43.35C31.56 40.52 34.86 39.1 38.93 39.1C42.16 39.1 44.73 39.77 46.65 41.13C48.56 42.48 49.89 44.49 50.61 47.15L73.78 44.15C71.56 37.14 67.7 31.81 62.19 28.17C56.69 24.53 48.69 22.7 38.2 22.7C30.7 22.7 24.55 23.66 19.75 25.57C16.72 26.78 13.78 28.64 10.91 31.12C8.05 33.6 5.79 36.42 4.13 39.54C2.26 43.08 1.21 47.41 0.889999 52.43C3.19 54.86 5.52 57.24 7.86 59.62Z" fill="#2C3446"/>
<path d="M3.53999 70.38C5.38999 74.1 7.96 77.34 11.22 80.09C14.49 82.85 18.39 84.85 22.93 86.08C25.99 86.91 29.61 87.44 33.7 87.71C24.73 79.33 15.77 70.78 7.07001 61.96C5.14001 62.27 3.23001 62.55 1.32001 62.85C1.77001 65.73 2.48999 68.27 3.53999 70.38Z" fill="#2C3446"/>
<path d="M123.78 56.9V60.72C123.78 63.7 123.29 66.12 122.3 67.97C121.31 69.83 119.64 71.41 117.28 72.7C114.92 73.99 112.37 74.64 109.63 74.64C107.01 74.64 105.02 74.04 103.67 72.85C102.42 71.74 101.77 70.32 101.68 68.62C94.73 72.68 87.79 76.68 80.84 80.57C81.47 81.32 82.13 82.06 82.92 82.75C86.89 86.2 92.71 87.92 100.37 87.92C106.14 87.92 111.2 87.06 115.55 85.33C118.74 84.04 121.94 81.88 125.17 78.87C125.45 80.67 125.73 81.99 126.02 82.84C126.3 83.68 126.91 84.91 127.84 86.51H150.95C149.66 83.92 148.82 81.8 148.44 80.14C148.2 79.1 148.06 77.73 147.97 76.2C141.8 68.2 135.54 60.22 129.16 52.31C125.89 54.29 122.62 56.26 119.37 58.2C120.82 57.76 122.37 57.39 123.78 56.9Z" fill="#2C3446"/>
<path d="M147.86 72.48V45.68C147.86 44.18 147.69 42.63 147.37 41.05C141.94 44.49 136.49 47.86 131.05 51.17C136.75 58.23 142.34 65.34 147.86 72.48Z" fill="#2C3446"/>
<path d="M119.88 37.58C120.69 37.86 121.4 38.22 121.9 38.69C122.67 39.41 123.17 40.51 123.47 41.89C125.55 44.4 127.6 46.93 129.65 49.46C135.35 46 141.05 42.46 146.74 38.85C146.51 38.04 146.35 37.25 146.04 36.42C144.83 33.19 143.17 30.69 141.08 28.93C138.1 26.38 134.36 24.71 129.89 23.91C128.46 23.65 126.82 23.45 125.09 23.28C121.32 25.61 117.41 27.84 113.39 29.98C115.56 32.5 117.74 35.02 119.88 37.58Z" fill="#2C3446"/>
<path d="M97.1 51.5C89.4 52.99 84.11 55.26 81.25 58.31C78.39 61.36 76.96 65.27 76.96 70C76.96 73.28 77.88 76.18 79.55 78.78C87.11 74.55 94.67 70.19 102.24 65.76C102.58 65.08 103.06 64.44 103.7 63.83C104.81 62.79 107.25 61.73 110.89 60.67C116.49 57.36 122.12 54.01 127.76 50.6C126.26 48.75 124.75 46.9 123.23 45.06C120.37 46.14 117.64 47.03 115.07 47.71C112.32 48.43 106.33 49.7 97.1 51.5Z" fill="#2C3446"/>
<path d="M111.93 28.27C115.15 26.57 118.27 24.79 121.33 22.97C118.55 22.8 115.5 22.71 112.1 22.71C110.41 22.71 108.81 22.8 107.2 22.89C108.79 24.67 110.36 26.47 111.93 28.27Z" fill="#2C3446"/>
<path d="M99.28 23.7C95.32 24.37 92.22 25.31 89.96 26.52C86.81 28.21 84.4 30.19 82.73 32.48C81.06 34.77 79.77 37.91 78.89 41.91L80.4 42.06C90.82 38.33 100.7 34.07 109.93 29.29C108.11 27.2 106.26 25.13 104.42 23.06C102.66 23.24 100.92 23.43 99.28 23.7Z" fill="#2C3446"/>
<path d="M102.42 44.33C103.39 41.63 104.66 39.78 106.23 38.81C108.25 37.56 111.27 36.93 115.3 36.93C115.73 36.93 116.09 36.97 116.48 36.99C114.79 34.99 113.09 33.01 111.39 31.03C103.2 35.28 94.53 39.15 85.41 42.59L102.42 44.33Z" fill="#2C3446"/>
<path d="M180.31 18.95C180.79 19.19 181.27 19.44 181.76 19.68V17.92C181.27 18.26 180.79 18.6 180.31 18.95Z" fill="#2C3446"/>
<path d="M157.07 84.44C157.6 85.13 158.13 85.83 158.66 86.52H181.76V22.13C180.6 21.55 179.44 20.97 178.29 20.38C171.3 25.33 164.22 30.15 157.07 34.81V84.44Z" fill="#2C3446"/>
<path d="M157.07 32.21C163.47 28.02 169.8 23.69 176.08 19.27C169.56 15.9 163.22 12.45 157.07 8.89001V32.21Z" fill="#2C3446"/>
<path d="M157.07 6.34C163.85 10.29 170.86 14.11 178.1 17.83C179.32 16.96 180.54 16.1 181.76 15.22V0.369995H157.08V6.34H157.07Z" fill="#2C3446"/>
<path d="M222.61 40.57C222.73 40.57 222.83 40.6 222.95 40.6C214.02 37.01 205.39 33.3 197.04 29.47C196.53 29.94 196.02 30.41 195.54 30.93C190.44 36.41 187.89 44.33 187.89 54.67C187.89 63.92 190.2 71.77 194.82 78.23C199.44 84.69 206.12 87.93 214.88 87.93C219.24 87.93 223.19 87.03 226.74 85.23C229.4 83.86 232.35 81.22 235.57 77.3V86.53H246.54C250.52 84.27 254.54 81.98 258.62 79.64V53.75C248.66 50.39 239.06 46.89 229.74 43.27C230.07 43.57 230.42 43.84 230.73 44.18C232.87 46.59 233.94 50.24 233.94 55.14C233.94 60.55 232.89 64.44 230.79 66.83C228.69 69.22 226.07 70.42 222.93 70.42C219.99 70.42 217.52 69.24 215.52 66.87C213.52 64.5 212.52 60.77 212.52 55.68C212.52 50.23 213.49 46.36 215.43 44.04C217.35 41.73 219.75 40.57 222.61 40.57Z" fill="#2C3446"/>
<path d="M258.61 86.52V82.16C256.04 83.63 253.5 85.08 250.97 86.52H258.61Z" fill="#2C3446"/>
<path d="M258.61 51.43V46.03C255.37 42.29 252.05 38.6 248.86 34.82C243.86 28.9 238.75 22.71 233.74 16.3V30.22C231.32 27.71 228.55 25.83 225.42 24.58C222.29 23.33 218.81 22.7 214.98 22.7C208.74 22.7 203.39 24.45 198.89 27.9C217.37 36.35 237.21 44.18 258.61 51.43Z" fill="#2C3446"/>
<path d="M250.54 33.41C253.18 36.54 255.94 39.58 258.61 42.69V0.380005H233.74V12.73C239.28 19.91 244.98 26.82 250.54 33.41Z" fill="#2C3446"/>
<path d="M299.29 87.86C299.93 87.87 300.51 87.93 301.17 87.93C310.97 87.93 318.49 86.57 323.74 83.85C327.48 81.91 330.81 79.02 333.77 75.28C326.4 73.51 318.99 71.62 311.57 69.64C310.54 70.71 309.55 71.61 308.62 72.13C306.44 73.3 304.15 73.89 301.72 73.89C297.89 73.89 294.78 72.54 292.4 69.84C291.19 68.49 290.31 66.62 289.74 64.27C289.66 64.32 289.58 64.37 289.49 64.42C286.87 65.94 284.35 67.38 281.77 68.87C287.56 75.23 293.36 81.6 299.29 87.86Z" fill="#2C3446"/>
<path d="M338.55 61.25V58.55C338.55 50.32 337.16 43.64 334.37 38.51C334.26 38.3 334.11 38.13 333.99 37.92C321.43 45.72 308.38 53.41 294.89 61.25H338.55Z" fill="#2C3446"/>
<path d="M264.26 52.53C264.24 52.78 264.24 53.04 264.23 53.29C264.55 53.4 264.88 53.5 265.2 53.61C264.88 53.25 264.58 52.88 264.26 52.53Z" fill="#2C3446"/>
<path d="M281.08 84.43C284.96 86.28 290.03 87.37 296.2 87.75C290.67 81.89 285.23 75.94 279.81 69.98C276.67 71.79 273.51 73.62 270.43 75.38C273.38 79.38 276.91 82.44 281.08 84.43Z" fill="#2C3446"/>
<path d="M268.95 73.33C269.01 73.43 269.08 73.5 269.14 73.6C272.14 71.88 275.22 70.1 278.28 68.33C274.83 64.52 271.41 60.69 268.01 56.84C266.71 56.42 265.43 55.99 264.14 55.56C264.17 62.37 265.76 68.29 268.95 73.33Z" fill="#2C3446"/>
<path d="M269.28 54.95C275.96 57.11 282.81 59.2 289.79 61.25H290.54C297.19 57.4 303.69 53.59 310.11 49.79H289.25C289.65 46.07 290.6 43.27 292.1 41.39C294.44 38.37 297.56 36.86 301.48 36.86C304.87 36.86 307.6 37.86 309.68 39.86C311.46 41.57 312.62 44.31 313.23 47.95C319.87 44 326.43 40.05 332.83 36.07C330.16 32.14 326.66 29 322.23 26.75C316.91 24.05 309.65 22.7 300.45 22.7C289.12 22.7 280.23 25.71 273.8 31.75C268.72 36.52 265.67 42.47 264.61 49.56C266.16 51.36 267.7 53.16 269.28 54.95Z" fill="#2C3446"/>
<path d="M315.52 68.42C322.09 70.15 328.64 71.79 335.16 73.34C335.84 72.37 336.53 71.43 337.16 70.36L315.52 68.42Z" fill="#2C3446"/>
<path d="M280.23 67.21C282.71 65.78 285.14 64.38 287.67 62.92C282.38 61.35 277.16 59.76 272.04 58.14C274.75 61.17 277.5 64.18 280.23 67.21Z" fill="#2C3446"/>
<path d="M348.1 76.3C354.67 77.76 361.21 79.14 367.72 80.42C369.44 79.23 371.13 78 372.84 76.79V65.6C372.84 55.61 374.11 48.79 376.65 45.15C378.42 42.56 380.92 41.27 384.15 41.27C385.84 41.27 388.14 41.86 391.05 43.03L398.67 25.99C394.35 23.79 390.38 22.7 386.75 22.7C383.28 22.7 380.37 23.53 378.01 25.2C375.65 26.87 373.36 29.91 371.14 34.34V24.12H355.4C352.98 25.74 350.57 27.37 348.11 28.97V76.3H348.1Z" fill="#2C3446"/>
<path d="M348.1 86.52H358.72C360.88 85.07 363.05 83.62 365.2 82.15C359.52 81.01 353.82 79.82 348.1 78.55V86.52Z" fill="#2C3446"/>
<path d="M372.85 83.69C371.31 83.4 369.76 83.07 368.22 82.77C366.37 84.04 364.5 85.27 362.65 86.53H372.85V83.69Z" fill="#2C3446"/>
<path d="M372.85 81.46V79.49C372.12 80 371.41 80.52 370.68 81.03C371.4 81.16 372.12 81.32 372.85 81.46Z" fill="#2C3446"/>
<path d="M351.43 24.12H348.1V26.33C349.22 25.6 350.32 24.85 351.43 24.12Z" fill="#2C3446"/>
<path d="M34.49 102.4V126.14H48.04V143.65H34.49V165.76C34.49 168.42 34.75 170.18 35.28 171.04C36.08 172.37 37.5 173.03 39.51 173.03C41.33 173.03 43.87 172.52 47.13 171.51L48.95 188.02C42.86 189.31 37.17 189.96 31.89 189.96C25.76 189.96 21.24 189.2 18.34 187.67C15.44 186.15 13.29 183.83 11.9 180.72C10.51 177.61 9.81 172.57 9.81 165.61V143.66H0.729996V126.15H9.81V114.69L34.49 102.4Z" fill="#2C3446"/>
<path d="M111.56 159.45C107.37 155.91 103.25 152.28 99.16 148.63C99.38 149.61 99.55 150.67 99.67 151.82H75.41C75.81 148.1 76.76 145.3 78.26 143.41C80.6 140.4 83.72 138.89 87.64 138.89C87.95 138.89 88.23 138.94 88.53 138.96C83.87 134.66 79.25 130.36 74.69 126.06C68.85 127.49 63.93 130.05 59.96 133.78C53.53 139.81 50.31 147.71 50.31 157.46C50.31 164.31 51.91 170.28 55.12 175.35C56.64 177.75 58.36 179.83 60.26 181.61C67.07 179.07 73.81 176.41 80.46 173.6C79.79 173.1 79.15 172.52 78.57 171.85C76.88 169.97 75.81 167.11 75.36 163.27H103.53C106.21 162.01 108.9 160.74 111.56 159.45Z" fill="#2C3446"/>
<path d="M124.72 163.27V160.57C124.72 158.81 124.62 157.16 124.5 155.54C121.56 157.01 118.59 158.46 115.62 159.91C116.99 161.05 118.39 162.15 119.77 163.27H124.72Z" fill="#2C3446"/>
<path d="M124.24 153.21C123.63 148.29 122.44 144.02 120.54 140.53C117.76 135.4 113.71 131.48 108.38 128.78C103.06 126.08 95.8 124.72 86.6 124.72C83.29 124.72 80.21 125.01 77.32 125.52C82.43 130.33 87.6 135.13 92.83 139.93C93.94 140.42 94.95 141.04 95.83 141.88C96.5 142.52 97.05 143.35 97.56 144.27C102.87 149.06 108.26 153.78 113.74 158.39C117.25 156.68 120.77 154.96 124.24 153.21Z" fill="#2C3446"/>
<path d="M113.44 160.98C111.86 161.74 110.3 162.52 108.72 163.28H116.28C115.34 162.5 114.38 161.76 113.44 160.98Z" fill="#2C3446"/>
<path d="M109.89 185.87C115.14 183.15 119.61 178.65 123.32 172.38L99.06 170.21C97.53 172.09 96.1 173.4 94.76 174.15C92.58 175.32 90.29 175.91 87.86 175.91C86.01 175.91 84.34 175.58 82.84 174.95C76.04 177.85 69.16 180.61 62.19 183.23C63.77 184.47 65.42 185.59 67.23 186.45C72.11 188.78 78.8 189.95 87.32 189.95C97.13 189.95 104.65 188.59 109.89 185.87Z" fill="#2C3446"/>
<path d="M147.72 186.61C141.87 182.81 135.96 178.61 129.99 174.13L119.69 188.54H146.37L147.72 186.61Z" fill="#2C3446"/>
<path d="M177.46 155.87L193.04 134.73C190.77 131.87 188.5 129.01 186.26 126.13H180.01C175.84 128.4 171.71 130.64 167.6 132.87L160.32 143.52L157.32 138.4C150.87 141.86 144.36 145.32 137.75 148.76L143.03 155.86L131.26 172.33C137.22 176.81 143.12 181 148.96 184.79L160.31 168.43L172.2 188.53H200.94L177.46 155.87Z" fill="#2C3446"/>
<path d="M150.13 126.14H120.91L136.42 146.99C143.11 143.52 149.69 140.02 156.21 136.52L150.13 126.14Z" fill="#2C3446"/>
<path d="M194.39 132.91L199.38 126.14H189.06C190.82 128.4 192.61 130.65 194.39 132.91Z" fill="#2C3446"/>
<path d="M172.22 126.14L170.32 128.91C172.02 127.99 173.72 127.07 175.43 126.14H172.22Z" fill="#2C3446"/>
<path d="M212.08 158.06V165.6C212.08 172.56 212.77 177.6 214.17 180.71C214.36 181.14 214.61 181.52 214.83 181.93C218.71 179.49 222.58 177.03 226.41 174.52C221.54 169.11 216.76 163.62 212.08 158.06Z" fill="#2C3446"/>
<path d="M236.76 165.76V143.65H250.31V126.14H236.76V102.4L212.08 114.68V126.14H203V143.65H212.07V154.67C217.35 160.97 222.74 167.18 228.24 173.29C231.11 171.4 233.96 169.5 236.8 167.58C236.78 167.03 236.76 166.42 236.76 165.76Z" fill="#2C3446"/>
<path d="M220.61 187.66C223.52 189.19 228.03 189.95 234.16 189.95C236.18 189.95 238.31 189.77 240.45 189.58C236.19 185.18 232 180.71 227.88 176.16C223.96 178.73 220 181.26 216.03 183.76C217.26 185.37 218.76 186.7 220.61 187.66Z" fill="#2C3446"/>
<path d="M249.4 171.51C246.13 172.53 243.59 173.03 241.78 173.03C239.76 173.03 238.35 172.36 237.55 171.04C237.39 170.78 237.27 170.42 237.16 170C234.69 171.66 232.22 173.3 229.73 174.95C234.15 179.83 238.65 184.64 243.24 189.34C244.83 189.14 246.5 188.83 248.16 188.53C249.16 188.18 250.16 187.81 251.16 187.46L249.4 171.51Z" fill="#2C3446"/>
<path d="M281.18 102.4H256.56V118.68H281.18V102.4Z" fill="#2C3446"/>
<path d="M281.19 180.14C272.94 182.59 264.73 185.21 256.57 187.96V188.55H281.19V180.14Z" fill="#2C3446"/>
<path d="M281.19 137.13V126.14H256.57V154.05C257.66 153.29 258.77 152.53 259.86 151.78C266.83 146.94 274.01 142 281.19 137.13Z" fill="#2C3446"/>
<path d="M281.19 139.78C274.43 144.37 267.68 149.02 261.1 153.57C259.59 154.61 258.08 155.66 256.56 156.71V185.64C264.72 182.9 272.93 180.29 281.18 177.85V139.78H281.19Z" fill="#2C3446"/>
<path d="M315.93 104.96V102.4H313.43C314.26 103.25 315.09 104.11 315.93 104.96Z" fill="#2C3446"/>
<path d="M315.93 170.39C307.72 172.61 299.48 174.89 291.25 177.24V188.55H315.93V170.39Z" fill="#2C3446"/>
<path d="M315.93 116.98C307.7 122.25 299.43 127.61 291.25 133.04V174.96C299.49 172.61 307.73 170.34 315.93 168.12V116.98Z" fill="#2C3446"/>
<path d="M315.93 108.09C314.06 106.2 312.21 104.29 310.36 102.39H291.25V130.41C299.45 124.98 307.72 119.63 315.93 114.37V108.09Z" fill="#2C3446"/>
<path d="M377.4 163.27H396.48V160.57C396.48 155.73 395.94 151.5 394.98 147.73C386.33 150.6 377.6 153.27 368.86 155.83C371.67 158.34 374.52 160.82 377.4 163.27Z" fill="#2C3446"/>
<path d="M392.78 175.82C393.57 174.72 394.35 173.61 395.08 172.38L387.59 171.71C389.31 173.09 391.04 174.47 392.78 175.82Z" fill="#2C3446"/>
<path d="M392.3 140.53C389.52 135.4 385.47 131.48 380.14 128.78C374.82 126.08 367.56 124.72 358.36 124.72C351.11 124.72 344.88 125.97 339.63 128.44C343.96 132.62 348.24 136.87 352.62 140.98C354.53 139.63 356.77 138.89 359.39 138.89C362.78 138.89 365.51 139.89 367.59 141.89C369.67 143.89 370.95 147.2 371.43 151.82H364.37C365.22 152.59 366.06 153.35 366.91 154.11C376.11 151.44 385.29 148.63 394.39 145.61C393.8 143.79 393.13 142.07 392.3 140.53Z" fill="#2C3446"/>
<path d="M383.66 171.36L370.82 170.21C369.29 172.09 367.86 173.4 366.52 174.15C364.34 175.32 362.05 175.91 359.62 175.91C355.79 175.91 352.68 174.56 350.3 171.86C348.61 169.98 347.54 167.12 347.09 163.28H374.01C371.43 161.06 368.88 158.83 366.35 156.57C353.29 160.35 340.2 163.87 327.21 167.35C326.04 167.67 324.85 167.99 323.67 168.3C324.46 170.8 325.47 173.18 326.85 175.35C330.06 180.43 334.1 184.13 338.98 186.46C343.86 188.79 350.55 189.96 359.07 189.96C368.87 189.96 376.39 188.6 381.64 185.88C385.29 183.99 388.53 181.18 391.44 177.58C388.83 175.53 386.23 173.46 383.66 171.36Z" fill="#2C3446"/>
<path d="M364.42 154.83C363.31 153.83 362.21 152.82 361.1 151.81H347.16C347.56 148.09 348.51 145.29 350.01 143.4C350.3 143.02 350.64 142.74 350.96 142.41C346.45 138.18 342.04 133.81 337.58 129.5C335.44 130.7 333.47 132.11 331.71 133.77C325.28 139.8 322.06 147.7 322.06 157.45C322.06 160.55 322.43 163.44 323.09 166.18C324.28 165.86 325.47 165.54 326.66 165.22C339.19 161.86 351.82 158.46 364.42 154.83Z" fill="#2C3446"/>
<path d="M435.37 124.73C428.11 124.73 422.32 125.47 418.01 126.93C413.69 128.4 410.31 130.62 407.85 133.59C405.8 136.06 404.66 138.95 404.31 142.21C418.38 137.24 432.2 131.64 445.58 125.18C442.69 124.88 439.3 124.73 435.37 124.73Z" fill="#2C3446"/>
<path d="M457.39 151.62C453.4 150.02 447.31 148.76 439.12 147.86C433.71 147.24 430.21 146.53 428.59 145.75C426.98 144.97 426.17 143.81 426.17 142.29C426.17 140.92 426.81 139.76 428.08 138.8C429.35 137.84 431.38 137.36 434.16 137.36C436.9 137.36 439.24 137.99 441.18 139.24C442.59 140.18 443.6 141.65 444.2 143.65L467.55 141.42C465.94 137.35 463.91 134.11 461.47 131.72C459.03 129.33 455.99 127.57 452.34 126.43C451.49 126.17 450.52 125.94 449.46 125.74C434.82 133 419.65 139.15 404.18 144.59C404.25 148.19 405.37 151.42 407.57 154.26C409.85 157.19 412.65 159.28 415.98 160.51C419.31 161.74 425.25 163.08 433.8 164.53C439.53 165.51 443.06 166.33 444.39 166.99C446.24 167.93 447.17 169.26 447.17 170.98C447.17 172.51 446.46 173.78 445.05 174.8C443.23 176.17 440.67 176.85 437.37 176.85C434.34 176.85 431.92 176.24 430.11 175.03C428.29 173.82 426.88 171.8 425.87 168.98L401.43 171.21C402.84 177.2 406.04 181.83 411.02 185.08C416 188.33 424.36 189.96 436.1 189.96C444.41 189.96 450.97 188.95 455.79 186.94C460.61 184.92 464.14 182.21 466.38 178.81C468.62 175.41 469.74 171.91 469.74 168.3C469.74 164.74 468.68 161.47 466.56 158.5C464.44 155.52 461.38 153.22 457.39 151.62Z" fill="#2C3446"/>
</svg>
